<svg width="162" height="72" viewBox="0 0 162 72" fill="none" xmlns="http://www.w3.org/2000/svg">
<g clip-path="url(#clip0_234_237)">
<path d="M150.205 58.1903C150.766 56.9048 151.618 56.3885 152.968 56.5588C153.997 56.6897 155.054 56.5893 156.1 56.5821C156.421 56.5803 156.808 56.6251 156.802 56.1249C156.797 55.6247 156.415 55.6839 156.092 55.6821C154.868 55.6767 153.643 55.7018 152.419 55.6713C150.899 55.6337 150.131 54.7839 150.339 53.4195C150.468 52.5751 151.022 52.0516 152.082 51.9189C154.187 51.6536 156.299 51.8884 158.439 51.788C157.876 53.2223 157.464 53.5181 156.107 53.5181C155.031 53.5181 153.957 53.5217 152.881 53.5181C152.566 53.5181 152.22 53.5414 152.22 53.9287C152.22 54.2855 152.55 54.3894 152.869 54.3948C154.242 54.411 155.619 54.3679 156.989 54.4468C158.387 54.5275 159.054 55.4849 158.715 56.7686C158.504 57.5682 157.814 58.1616 156.856 58.1795C154.655 58.219 152.451 58.1921 150.201 58.1921L150.205 58.1903Z" fill="#151430"/>
<path d="M100.95 51.7979C100.364 53.1229 99.5801 53.7486 98.1889 53.5442C97.2548 53.4061 96.2849 53.5173 95.3293 53.5173C95.0227 53.5173 94.6767 53.5227 94.6767 53.9278C94.6767 54.3133 95.0137 54.385 95.3221 54.3886C96.1863 54.4012 97.0522 54.3922 97.9164 54.3958C98.3628 54.3958 98.811 54.3904 99.2574 54.4173C100.588 54.4998 101.258 55.1129 101.242 56.2119C101.226 57.3719 100.444 58.1626 99.1678 58.1841C97.0217 58.2199 94.8739 58.1948 92.7261 58.1948C93.1815 56.9398 93.6709 56.5831 94.9277 56.5831C96.1199 56.5831 97.314 56.5884 98.5062 56.5795C98.8558 56.5777 99.2987 56.6315 99.27 56.0864C99.2449 55.6131 98.8415 55.6795 98.5206 55.6795C97.2978 55.6741 96.0751 55.701 94.8524 55.6687C93.4109 55.631 92.683 54.8816 92.7709 53.589C92.8336 52.6639 93.4235 52.0525 94.5333 51.9181C96.6345 51.6635 98.7429 51.8661 100.95 51.7961V51.7979Z" fill="#151430"/>
<path d="M110.323 53.5205C110.909 52.2476 111.68 51.6075 113.071 51.785C114.276 51.9374 115.515 51.7205 116.73 51.9266C118.538 52.2332 119.411 53.5832 118.746 55.0247C118.48 55.5984 118.005 55.9211 117.383 56.1613C117.994 56.8157 118.575 57.4379 119.298 58.2106C118.378 58.2106 117.621 58.2375 116.868 58.2016C116.352 58.1765 116.144 57.6745 115.925 57.3339C115.492 56.6598 114.932 56.4679 114.194 56.5612C113.987 56.588 113.776 56.5647 113.568 56.5647C112.316 56.5647 112.306 56.5647 112.191 57.7893C112.164 58.0743 112.121 58.2482 111.793 58.2124C111.705 58.2016 111.614 58.2106 111.524 58.2124C110.639 58.2315 110.197 57.806 110.197 56.9359C110.197 55.6271 110.858 54.9727 112.178 54.9727C113.371 54.9727 114.565 54.9906 115.757 54.9619C116.261 54.9494 116.856 54.901 116.824 54.1856C116.795 53.533 116.248 53.5259 115.762 53.5241C113.977 53.5187 112.191 53.5223 110.323 53.5223V53.5205Z" fill="#151431"/>
<path d="M149.276 54.2637C148.751 55.4255 147.987 55.8791 146.827 55.7105C146.214 55.6227 145.576 55.6872 144.95 55.698C144.651 55.7034 144.287 55.5689 144.274 56.1283C144.263 56.6751 144.604 56.5837 144.92 56.5837C146.469 56.5855 148.016 56.5837 149.577 56.5837C149.057 57.9157 148.647 58.208 147.338 58.208C145.877 58.208 144.414 58.1918 142.953 58.2169C142.49 58.2241 142.263 58.1685 142.275 57.6092C142.313 55.8809 142.293 54.149 142.286 52.4189C142.286 52.0693 142.266 51.7914 142.775 51.795C145.033 51.8165 147.29 51.8039 149.658 51.8039C149.036 52.9083 148.45 53.7671 147.044 53.5358C146.318 53.4157 145.556 53.5125 144.81 53.5161C144.543 53.5161 144.267 53.4731 144.28 53.9051C144.292 54.3516 144.597 54.2565 144.843 54.2565C146.295 54.2637 147.747 54.2601 149.276 54.2601V54.2637Z" fill="#151332"/>
<path d="M109.457 56.5859C108.905 57.8696 108.084 58.3931 106.719 58.2407C105.454 58.099 104.157 58.1887 102.876 58.221C102.339 58.2353 102.09 58.1546 102.11 57.5164C102.162 55.849 102.148 54.1763 102.115 52.5089C102.105 51.9729 102.235 51.7882 102.804 51.7972C104.98 51.8312 107.157 51.8115 109.337 51.8115C108.996 53.002 108.344 53.5201 107.193 53.5201C106.357 53.5201 105.522 53.5165 104.688 53.5219C104.408 53.5219 104.073 53.4215 104.095 53.9253C104.114 54.3807 104.426 54.2588 104.663 54.2606C106.112 54.2695 107.562 54.2641 109.104 54.2641C108.57 55.2144 108.069 55.9172 106.875 55.7199C106.121 55.5944 105.328 55.711 104.554 55.6913C104.206 55.6823 104.095 55.797 104.091 56.1484C104.087 56.5142 104.229 56.5948 104.561 56.5931C106.171 56.5805 107.779 56.5877 109.455 56.5877L109.457 56.5859Z" fill="#151431"/>
<path d="M61.9464 58.1818C61.6201 58.1979 61.4748 58.2105 61.3314 58.2105C59.128 58.2105 56.9228 58.2105 54.5706 58.2105C55.0995 57.5973 55.2052 56.726 56.0479 56.6077C56.7722 56.5073 57.5234 56.5862 58.4055 56.5862C57.7977 55.6826 57.2599 54.8812 56.6718 54.0044C55.8847 55.1142 55.0797 56.1469 54.3949 57.2549C53.9341 57.9989 53.4034 58.3629 52.5231 58.2176C52.1843 58.1621 51.8293 58.2087 51.3237 58.2087C52.7939 56.1415 54.1511 54.1658 55.5853 52.2475C56.1734 51.4622 57.2867 51.5231 57.8891 52.3568C59.2445 54.2286 60.5354 56.1451 61.9464 58.18V58.1818Z" fill="#151330"/>
<path d="M70.2367 54.1714C70.2367 54.3507 70.2241 54.53 70.2385 54.7075C70.4823 57.7087 68.7845 58.182 66.6635 58.3667C65.5323 58.4653 64.4081 58.3147 63.3432 57.8683C62.3948 57.4703 61.8928 56.7262 61.8426 55.7348C61.7852 54.6053 61.839 53.4704 61.8193 52.3373C61.8139 51.9573 61.9466 51.8336 62.3284 51.8013C63.7914 51.6812 63.7896 51.665 63.7896 53.1549C63.7896 53.8702 63.8004 54.5856 63.7878 55.3009C63.7735 56.0862 64.1105 56.5021 64.9209 56.6061C65.6954 56.7047 66.4484 56.7657 67.2265 56.6097C67.9311 56.4699 68.2646 56.1149 68.2538 55.3959C68.2395 54.4117 68.2789 53.4274 68.2412 52.4449C68.2215 51.925 68.4026 51.7475 68.901 51.8067C69.1359 51.8353 69.3815 51.8389 69.6146 51.8067C70.1542 51.7332 70.2725 51.9913 70.2439 52.4718C70.2098 53.0366 70.2349 53.6049 70.2367 54.1696V54.1714Z" fill="#151431"/>
<path d="M141.488 56.5838C140.972 57.975 140.018 58.4053 138.677 58.226C137.974 58.1328 137.246 58.226 136.532 58.1937C134.833 58.1167 133.399 56.8222 133.305 55.3108C133.196 53.5019 134.214 52.2325 136.113 51.9313C137.882 51.6498 139.668 51.8614 141.54 51.8058C140.946 52.9156 140.358 53.7887 138.951 53.5359C138.374 53.4319 137.761 53.5126 137.165 53.5216C135.991 53.5395 135.272 54.1294 135.276 55.0634C135.277 55.9867 135.995 56.5694 137.19 56.582C138.618 56.5963 140.043 56.5856 141.49 56.5856L141.488 56.5838Z" fill="#151431"/>
<path d="M118.81 51.81C119.653 51.81 120.271 51.8279 120.888 51.8028C121.258 51.7884 121.397 52.0197 121.569 52.2743C122.251 53.2837 122.991 54.2554 123.619 55.2971C124.017 55.9568 124.239 56.0662 124.685 55.349C125.252 54.4437 125.955 53.6225 126.503 52.7082C126.943 51.9749 127.489 51.6701 128.325 51.801C128.642 51.8512 128.974 51.8082 129.29 51.8082C129.453 52.1273 129.186 52.2725 129.069 52.441C127.916 54.0994 126.754 55.7542 125.578 57.3965C124.63 58.7214 123.606 58.716 122.685 57.3965C121.43 55.5965 120.184 53.7911 118.81 51.81Z" fill="#151431"/>
<path d="M70.8821 53.5203C71.4504 52.242 72.2231 51.6683 73.6108 51.7741C75.4431 51.9139 77.2915 51.8081 79.1597 51.8081C78.5411 53.3016 78.2256 53.5759 76.7608 53.497C75.9146 53.4522 75.7138 53.7354 75.7676 54.5225C75.8357 55.5319 75.7604 56.552 75.7945 57.565C75.8106 58.0526 75.6923 58.2857 75.1652 58.2158C74.9016 58.1799 74.6256 58.1817 74.3602 58.2158C73.8618 58.2821 73.7704 58.049 73.7811 57.6044C73.808 56.4408 73.7686 55.2773 73.8008 54.1137C73.8134 53.6404 73.6646 53.488 73.1949 53.5095C72.4526 53.5436 71.7086 53.5185 70.8821 53.5185V53.5203Z" fill="#161533"/>
<path d="M132.235 55.0627C132.235 55.8981 132.208 56.7336 132.246 57.5673C132.267 58.0639 132.128 58.2808 131.608 58.2181C131.314 58.1822 131.011 58.193 130.715 58.2181C130.358 58.2468 130.259 58.098 130.263 57.7573C130.276 55.9394 130.277 54.1196 130.263 52.2999C130.259 51.8947 130.423 51.7782 130.796 51.8069C131.091 51.8302 131.393 51.8302 131.69 51.8069C132.124 51.7728 132.258 51.9592 132.246 52.3806C132.221 53.2752 132.239 54.1698 132.239 55.0645L132.235 55.0627Z" fill="#161533"/>
<path d="M45.7353 54.1742C45.5507 53.3674 45.2567 53.2832 44.6023 53.6238C42.7395 54.5937 40.753 55.1961 38.6859 55.5421C37.9185 55.5941 37.1494 55.6479 36.3821 55.6999C34.0406 55.8559 31.778 55.4023 29.537 54.7981C29.4097 54.73 29.2896 54.6439 29.1569 54.5955C25.2987 53.181 22.1648 50.8126 19.8036 47.451C17.3133 43.9048 16.1874 39.9354 16.252 35.6164C16.2968 35.0822 16.3273 34.5461 16.3882 34.0136C16.7629 30.7542 17.9785 27.8086 19.7516 25.0727C20.0277 24.7052 20.3038 24.3358 20.5799 23.9683C20.6355 23.8984 20.691 23.8302 20.7466 23.7603C20.8327 23.6796 20.9241 23.6043 21.0012 23.5147C24.4883 19.5435 28.8844 17.3097 34.1249 16.8346C38.641 16.4258 42.8094 17.5481 46.5834 20.0868C46.8505 20.2661 47.0764 20.5619 47.4242 20.5637C49.5559 20.5744 51.6876 20.5691 53.8354 20.5691C53.7619 20.2123 53.4805 20.0097 53.2653 19.7856C47.4995 13.8172 40.4841 11.3879 32.2711 12.4797C28.1511 13.0265 24.4148 14.5612 21.1464 17.1662C19.3141 18.4356 17.8153 20.0438 16.4832 21.8097C13.4139 25.8795 11.8684 30.5086 11.673 35.568C11.5654 38.3272 11.8917 41.0649 12.8868 43.6807C14.6366 49.2152 18.0215 53.4768 22.9034 56.5838C23.2118 56.7792 23.4144 56.7505 23.6833 56.5228C25.3399 55.1119 27.1794 54.8627 29.1748 55.7107C31.0214 56.6932 32.1742 58.1364 32.3051 60.4151C31.6705 60.1229 31.1434 59.8593 30.6001 59.6352C30.0246 59.3968 29.5011 59.0508 28.8808 58.8984C27.5863 58.5792 26.6935 59.0543 26.0947 60.4474C25.4905 61.8476 25.7074 62.7404 26.9069 63.4235C27.7585 63.9094 28.6531 64.3235 29.5459 64.7305C30.0139 64.9438 30.0067 65.1464 29.6123 65.3903C28.983 65.7793 28.334 66.1289 27.563 66.1235C27.2045 66.1164 26.8477 66.1164 26.4891 66.102C23.5202 65.9891 21.2379 63.3195 21.7327 60.3936C21.8815 59.5169 21.609 59.1243 20.9403 58.6796C16.8346 55.9437 13.6308 52.4047 11.4901 47.9297C10.6529 46.1763 10.1222 44.3207 9.5467 42.4777C9.55387 42.4006 9.53415 42.3181 9.4714 42.2374C9.29212 41.0649 9.03574 39.896 8.9443 38.7163C8.43693 32.2297 9.95726 26.2667 13.6864 20.9079C15.0561 18.9376 16.6213 17.1286 18.4285 15.5401C18.7422 15.567 18.8856 15.3017 19.09 15.1457C26.5949 9.4767 34.8707 8.01553 43.8744 10.6456C47.6788 11.7572 50.9579 13.8262 53.9305 16.4079C55.0689 17.6234 56.2719 18.7852 57.2401 20.1477C57.5484 20.5816 57.8837 20.7501 58.418 20.7537C60.6554 20.7663 62.8929 20.8362 65.1322 20.8685C66.4212 20.8864 67.7121 20.872 69.089 20.872C68.5547 19.5686 67.8878 18.4822 67.2728 17.3688C67.0416 16.9493 66.787 17.082 66.4678 17.2326C65.5194 17.6772 64.5262 18.0053 63.4756 18.0537C59.7447 18.2258 56.9765 16.6517 55.1514 13.403C54.1492 10.9182 54.0506 8.42251 55.2231 5.97706C55.5351 5.32626 55.293 5.12367 54.8107 4.83143C51.892 3.06189 48.7904 1.72443 45.4951 0.831588C44.5712 0.580589 43.9132 0.873421 43.5212 1.71008C41.1672 6.71572 35.4587 8.4494 31.0161 5.50016C29.4115 4.43521 28.4433 2.8844 27.7477 1.13279C27.6294 0.833381 27.6312 0.363655 27.0718 0.537561C25.7989 0.930195 24.474 1.15609 23.2638 1.74594C20.8201 2.48459 18.6006 3.69835 16.4097 4.97486C16.0583 5.17924 16.0529 5.40694 16.2197 5.78702C16.7306 6.95058 17.1251 8.17689 17.143 9.44802C17.1932 13.0767 15.4004 15.6602 12.2844 17.3114C9.93037 18.5593 7.48313 18.1631 5.11119 17.2469C4.56079 17.0336 4.35282 17.1591 4.08031 17.6198C2.29822 20.6372 1.03246 23.8571 0.11094 27.2331C-0.154402 28.2048 0.0266761 28.6189 0.989436 29.0546C3.81317 30.3347 5.58271 32.504 5.86598 35.6881C6.1869 39.281 4.9086 42.0904 1.73885 43.9657C1.18844 44.2902 0.277675 44.3512 0.152175 44.95C0.0266761 45.547 0.40676 46.2642 0.609352 46.9132C1.50936 49.8032 2.61017 52.6037 4.29724 55.1423C4.5339 55.9688 4.97494 56.1123 5.81399 55.8308C10.5005 54.2621 15.0221 56.4117 16.7091 60.9297C17.4478 62.9054 17.1932 64.8488 16.5836 66.7869C16.4725 67.1383 16.3039 67.4287 16.754 67.6905C19.3303 69.1875 21.9801 70.5124 24.8791 71.2798C25.356 71.5989 25.928 71.6455 26.4569 71.7997C27.7065 72.1618 27.6903 72.126 28.2981 70.9212C28.6477 70.2292 29.1246 69.6268 29.6643 69.0513C31.588 67.0074 33.9958 66.362 36.6958 66.4785C37.0705 66.5592 37.447 66.6327 37.8217 66.7206C40.4572 67.3355 42.1981 69.0262 43.3831 71.3712C43.6001 71.7997 43.7919 72.1188 44.38 71.9611C45.9326 71.5451 47.4672 71.0844 48.9768 70.5339C49.3981 70.3798 49.4824 70.1341 49.3802 69.7092C48.1485 64.5351 46.915 59.3627 45.7318 54.176L45.7353 54.1742Z" fill="#316EB6"/>
<path d="M66.4716 35.1954C70.3477 31.8267 73.9962 28.2087 77.7289 24.6858C78.0409 24.3917 78.3636 24.1067 78.6809 23.818C75.7155 23.628 72.8613 23.6423 70.0071 23.6154C69.4549 23.61 69.0676 23.7696 68.6822 24.1622C66.5075 26.3764 64.2879 28.5493 62.1293 30.7779C61.622 31.3014 61.3709 31.2171 60.9102 30.7474C58.6153 28.4023 56.2846 26.0931 53.9665 23.7714C53.6581 23.4917 53.2816 23.6298 52.941 23.6298C44.4052 23.6244 35.8695 23.6298 27.3337 23.6334C27.0056 23.6334 26.6757 23.6334 26.3477 23.6334C26.6255 23.8073 26.9052 23.8915 27.1921 23.9453C31.3121 24.7073 35.432 25.471 39.552 26.224C41.9472 26.6633 44.3443 27.0864 46.7413 27.5167C48.3083 27.6655 48.968 28.9796 49.8878 30.0518H28.4596C32.0364 30.5502 35.6149 30.941 39.1952 31.3229C43.256 31.7568 47.315 32.1924 51.3776 32.6066C52.5663 32.7285 53.6958 32.9078 54.3412 34.2327C47.7005 34.6002 41.1333 34.9624 34.5643 35.3245C34.5643 35.3532 34.5625 35.3801 34.5607 35.4088C41.0687 36.2281 47.5768 37.0474 54.2516 37.8883C50.5045 41.474 46.8973 44.9252 43.1395 48.5199C46.1048 48.5199 48.8443 48.5073 51.582 48.5306C52.127 48.536 52.5179 48.3926 52.9141 47.9982C55.3093 45.6226 57.753 43.2955 60.1411 40.9128C60.6395 40.4144 60.9048 40.3893 61.4032 40.9039C63.7106 43.283 66.0682 45.6137 68.3828 47.9856C68.7718 48.3836 69.1591 48.536 69.7095 48.5306C72.6659 48.5055 75.6223 48.5217 78.5805 48.5109C78.7867 48.5109 79.0538 48.6472 79.2367 48.3316C74.9823 44.2726 70.8892 40.0469 66.5236 36.1062C66.1328 35.7548 65.9965 35.606 66.4716 35.1936V35.1954Z" fill="#316EB6"/>
<path d="M111.686 25.6352C110.922 24.5362 109.877 23.7455 108.539 23.412C105.95 22.7666 103.758 23.6272 102.036 26.0439C97.3481 32.6273 92.6795 39.2232 88.0038 45.8155C87.3924 46.676 86.79 47.5438 86.1016 48.5227C88.988 48.5227 91.6988 48.4994 94.4096 48.5388C95.03 48.5478 95.376 48.3219 95.713 47.8396C98.0204 44.5408 100.353 41.2599 102.678 37.9736C104.068 36.0086 105.459 34.0454 106.893 32.0177C109.22 35.4295 111.495 38.7642 113.846 42.2101C111.06 42.0505 108.426 42.2621 105.814 42.0702C103.908 41.9304 102.648 42.4664 101.683 44.1571C100.824 45.6613 99.6734 47.0006 98.5905 48.4976H127.378C127.335 48.3362 127.333 48.2717 127.303 48.2269C122.102 40.6933 116.906 33.1562 111.686 25.6352Z" fill="#316EB6"/>
<path d="M158.011 27.2804C155.196 24.8314 151.784 23.7862 148.134 23.6714C144.018 23.5423 139.894 23.6338 135.774 23.623C135.437 23.623 135.156 23.6481 134.919 23.9637C133.44 25.9448 131.939 27.9079 130.301 30.0719C130.837 30.0719 131.154 30.0719 131.473 30.0719C136.61 30.0719 141.745 30.054 146.881 30.0791C148.668 30.088 150.368 30.4968 151.854 31.5546C155.426 34.095 155.11 39.081 151.243 41.1481C150.151 41.7308 148.977 42.075 147.74 42.0876C144.724 42.118 141.709 42.0929 138.693 42.1216C138.137 42.127 137.988 41.9441 137.994 41.4045C138.019 38.8676 137.985 36.3289 138.019 33.7921C138.028 33.1646 137.841 32.9781 137.216 32.9889C135.186 33.0247 133.155 33.0193 131.125 32.9924C130.489 32.9835 130.261 33.1574 130.267 33.8476C130.301 38.475 130.295 43.1023 130.272 47.7279C130.268 48.3374 130.408 48.54 131.054 48.5364C136.698 48.506 142.342 48.5705 147.984 48.4844C151.11 48.436 154.029 47.5091 156.627 45.7181C163.183 41.1965 163.861 32.3667 158.016 27.2786L158.011 27.2804Z" fill="#316EB6"/>
<path d="M84.375 23.6303C83.016 23.6303 81.9457 23.6465 80.8754 23.6214C80.4917 23.6124 80.2783 23.8275 80.0399 24.0552C76.1691 27.7826 72.3038 31.5153 68.4151 35.2229C67.983 35.6352 68.0135 35.8378 68.4294 36.2287C72.6229 40.1801 76.7948 44.1513 80.9758 48.1153C81.1443 48.2748 81.2805 48.5061 81.5513 48.5061C82.6037 48.5115 83.6561 48.5079 84.9308 48.5079C80.3716 44.0885 76.0831 39.7534 71.5669 35.6119C75.9092 31.7878 80.0004 27.7485 84.3768 23.6267L84.375 23.6303Z" fill="#316EB6"/>
<path d="M85.8451 51.9802C85.0921 51.7686 84.3194 51.7095 83.5879 51.7543C82.7022 51.7292 81.8775 51.774 81.0653 52.034C79.5414 52.5234 78.8458 53.418 78.8332 54.9706C78.8189 56.5968 79.4787 57.5541 81.0277 58.0292C82.6305 58.5223 84.2602 58.5205 85.872 58.0705C87.5088 57.6115 88.1883 56.681 88.1865 55.0208C88.1865 53.4073 87.4407 52.4302 85.8451 51.9802ZM86.1839 55.1858C86.1624 56.1432 85.7913 56.4497 84.6349 56.6129C83.7958 56.7312 82.9711 56.6882 82.1428 56.5842C81.2249 56.4677 80.8376 56.0302 80.8161 55.1087C80.7928 54.1047 81.1245 53.6744 82.0926 53.5095C82.5606 53.4306 83.0375 53.4055 83.4176 53.366C83.9016 53.4001 84.2907 53.4055 84.6725 53.4593C85.9257 53.6368 86.2126 53.972 86.1839 55.1876V55.1858Z" fill="#161331"/>
<path d="M53.2833 65.5353H54.7857V65.8759H52.8638V61.6914H53.2833V65.5335V65.5353Z" fill="#151332"/>
<path d="M58.9164 62.0316V63.5931H60.503V63.9409H58.9164V65.5276H60.6823V65.8754H58.4968V61.6855H60.6823V62.0334H58.9164V62.0316Z" fill="#151332"/>
<path d="M67.0685 61.6914V62.0392H65.9067V65.8759H65.4872V62.0392H64.3201V61.6914H67.0685Z" fill="#151332"/>
<path d="M70.8998 61.6914H71.3839L70.8568 62.984H70.552L70.8998 61.6914Z" fill="#151332"/>
<path d="M75.6795 65.7731C75.4697 65.6781 75.3048 65.5437 75.1865 65.3715C75.0663 65.1994 75.0036 65.0094 74.9946 64.796H75.4375C75.4572 65.0004 75.5468 65.1779 75.7064 65.3321C75.866 65.4863 76.099 65.5634 76.4074 65.5634C76.6907 65.5634 76.9148 65.4899 77.0815 65.3447C77.2464 65.1994 77.3307 65.0148 77.3307 64.7907C77.3307 64.6114 77.2841 64.4662 77.1927 64.3568C77.1012 64.2474 76.9865 64.165 76.852 64.1112C76.7158 64.0574 76.5293 63.9982 76.2891 63.9337C76.0094 63.8584 75.7889 63.7849 75.6239 63.7114C75.4608 63.6396 75.3209 63.5285 75.2044 63.3761C75.0879 63.2237 75.0305 63.0193 75.0305 62.7594C75.0305 62.5442 75.0861 62.3506 75.199 62.1821C75.3102 62.0117 75.4679 61.8791 75.6723 61.7841C75.8767 61.689 76.1098 61.6406 76.3733 61.6406C76.7606 61.6406 77.0725 61.7356 77.311 61.9257C77.5476 62.1157 77.6857 62.3596 77.7216 62.659H77.2662C77.2375 62.4868 77.1443 62.3345 76.9847 62.2018C76.8251 62.0673 76.61 62.001 76.3375 62.001C76.0865 62.001 75.8767 62.0673 75.7082 62.2018C75.5414 62.3363 75.4572 62.5173 75.4572 62.7486C75.4572 62.9243 75.5038 63.0659 75.5952 63.1735C75.6867 63.2811 75.8014 63.3636 75.9395 63.4191C76.0775 63.4747 76.264 63.5357 76.4988 63.5984C76.7696 63.6737 76.9901 63.749 77.1568 63.8225C77.3235 63.896 77.4652 64.009 77.5817 64.1614C77.6982 64.3138 77.7556 64.5164 77.7556 64.7727C77.7556 64.9682 77.7036 65.1546 77.5996 65.3303C77.4957 65.506 77.3415 65.6476 77.1389 65.7552C76.9345 65.8628 76.6925 65.9166 76.4092 65.9166C76.1259 65.9166 75.8911 65.8682 75.6813 65.7731H75.6795Z" fill="#151332"/>
<path d="M88.6903 61.6914V62.0392H86.8473V63.6008H88.4035V63.9486H86.8473V65.8759H86.4277V61.6914H88.6903Z" fill="#151332"/>
<path d="M92.9107 61.6914V65.8759H92.4912V61.6914H92.9107Z" fill="#151332"/>
<path d="M98.4827 63.7872L99.7521 65.8759H99.2859L98.221 64.1279L97.2098 65.8759H96.7437L98.0058 63.7693L96.7437 61.6914H97.2098L98.2694 63.4341L99.2931 61.6914H99.7592L98.4845 63.7872H98.4827Z" fill="#151332"/>
<path d="M111.108 61.6914L109.767 64.248V65.8759H109.347V64.248L107.994 61.6914H108.467L109.557 63.8643L110.64 61.6914H111.106H111.108Z" fill="#151332"/>
<path d="M115.657 65.6442C115.341 65.4631 115.094 65.2086 114.911 64.884C114.728 64.5595 114.638 64.1902 114.638 63.7797C114.638 63.3691 114.73 62.9998 114.911 62.6753C115.092 62.3507 115.341 62.0962 115.657 61.9151C115.972 61.734 116.323 61.6426 116.711 61.6426C117.098 61.6426 117.455 61.734 117.77 61.9151C118.086 62.0962 118.333 62.3507 118.513 62.6753C118.692 62.9998 118.781 63.3691 118.781 63.7797C118.781 64.1902 118.692 64.5595 118.513 64.884C118.333 65.2086 118.086 65.4631 117.77 65.6442C117.455 65.8253 117.102 65.9167 116.711 65.9167C116.32 65.9167 115.972 65.8253 115.657 65.6442ZM117.548 65.3358C117.795 65.1924 117.991 64.9862 118.134 64.7155C118.278 64.4466 118.349 64.1346 118.349 63.7779C118.349 63.4211 118.278 63.1109 118.134 62.8438C117.991 62.5766 117.795 62.3705 117.548 62.227C117.301 62.0836 117.021 62.0119 116.711 62.0119C116.401 62.0119 116.121 62.0836 115.873 62.227C115.626 62.3705 115.431 62.5766 115.287 62.8438C115.144 63.1109 115.072 63.4229 115.072 63.7779C115.072 64.1328 115.144 64.4448 115.287 64.7155C115.431 64.9844 115.626 65.1906 115.873 65.3358C116.121 65.4793 116.401 65.551 116.711 65.551C117.021 65.551 117.301 65.4793 117.548 65.3358Z" fill="#151332"/>
<path d="M123.061 61.6914V64.3251C123.061 64.741 123.16 65.0476 123.357 65.2466C123.554 65.4456 123.825 65.546 124.167 65.546C124.51 65.546 124.779 65.4474 124.972 65.2502C125.166 65.053 125.263 64.7446 125.263 64.3251V61.6914H125.682V64.3197C125.682 64.8504 125.541 65.2502 125.261 65.5173C124.979 65.7845 124.614 65.9189 124.162 65.9189C123.71 65.9189 123.344 65.7845 123.063 65.5173C122.781 65.2502 122.642 64.8504 122.642 64.3197V61.6914H123.061Z" fill="#151332"/>
<path d="M131.957 65.8759L130.921 64.1279H130.148V65.8759H129.729V61.6914H130.985C131.451 61.6914 131.806 61.8026 132.048 62.0267C132.29 62.2508 132.411 62.543 132.411 62.907C132.411 63.2099 132.325 63.4681 132.151 63.6815C131.977 63.8948 131.72 64.0329 131.382 64.0974L132.459 65.8759H131.957ZM130.15 63.7872H130.994C131.321 63.7872 131.568 63.7084 131.733 63.5488C131.898 63.3892 131.982 63.1759 131.982 62.9088C131.982 62.6416 131.901 62.4211 131.742 62.2705C131.582 62.1217 131.331 62.0464 130.987 62.0464H130.15V63.789V63.7872Z" fill="#151332"/>
<path d="M141.187 62.6753C141.366 62.3507 141.612 62.0962 141.924 61.9151C142.235 61.734 142.581 61.6426 142.965 61.6426C143.431 61.6426 143.831 61.7537 144.165 61.9743C144.498 62.1948 144.74 62.5085 144.892 62.9119H144.401C144.281 62.6286 144.098 62.4063 143.854 62.2468C143.609 62.0872 143.313 62.0065 142.965 62.0065C142.659 62.0065 142.381 62.0782 142.137 62.2217C141.891 62.3651 141.699 62.5713 141.56 62.842C141.42 63.1109 141.35 63.4247 141.35 63.7797C141.35 64.1346 141.42 64.4466 141.56 64.7137C141.699 64.9809 141.891 65.187 142.137 65.3305C142.382 65.4739 142.659 65.5456 142.965 65.5456C143.313 65.5456 143.609 65.4667 143.854 65.309C144.1 65.1512 144.283 64.9325 144.401 64.6528H144.892C144.74 65.0526 144.498 65.3609 144.163 65.5797C143.828 65.7984 143.428 65.9096 142.965 65.9096C142.581 65.9096 142.235 65.8181 141.924 65.637C141.612 65.456 141.366 65.2032 141.187 64.8805C141.007 64.5577 140.918 64.1902 140.918 63.7797C140.918 63.3691 141.007 62.9998 141.187 62.6753Z" fill="#151332"/>
<path d="M151.261 64.8816H149.357L148.991 65.8749H148.548L150.074 61.7441H150.547L152.067 65.8749H151.625L151.259 64.8816H151.261ZM151.135 64.5338L150.309 62.2712L149.482 64.5338H151.133H151.135Z" fill="#151332"/>
<path d="M158.079 65.8759L157.043 64.1279H156.27V65.8759H155.85V61.6914H157.107C157.573 61.6914 157.928 61.8026 158.17 62.0267C158.412 62.2508 158.532 62.543 158.532 62.907C158.532 63.2099 158.446 63.4681 158.272 63.6815C158.099 63.8948 157.842 64.0329 157.503 64.0974L158.581 65.8759H158.079ZM156.272 63.7872H157.116C157.442 63.7872 157.69 63.7084 157.855 63.5488C158.02 63.3892 158.104 63.1759 158.104 62.9088C158.104 62.6416 158.023 62.4211 157.864 62.2705C157.704 62.1217 157.453 62.0464 157.109 62.0464H156.272V63.789V63.7872Z" fill="#151332"/>
</g>
<defs>
<clipPath id="clip0_234_237">
<rect width="162" height="71.5006" fill="white" transform="translate(0 0.5)"/>
</clipPath>
</defs>
</svg>
